<svg xmlns="http://www.w3.org/2000/svg" width="170" height="70" viewBox="0 0 170 70"><style>.a{fill:#36D7B7;}.b{fill:#666;}</style><title>  logo header grey@1x</title><desc>  Created with Sketch.</desc><g id="Symbols" fill="none"><g id="logo-header-grey"><g id="logo"><g id="Group"><path d="M54.7 50.2L50.6 50.2 46.4 38.5C46.2 37.8 46 37.1 46 36.5L45.7 36.5C45.7 37.1 45.5 37.9 45.3 38.5L41.3 50.2 37.1 50.2 28.2 28.9 34.6 28.9 38.8 41.3C39 41.9 39.2 42.5 39.2 43L39.6 43C39.6 42.4 39.8 41.8 40 41.3L43.7 28.9 48.1 28.9 51.9 41.3C52.1 41.9 52.3 42.5 52.3 43L52.7 43C52.7 42.4 52.9 41.9 53 41.3L57.3 28.9 63.6 28.9 54.7 50.2 54.7 50.2Z" id="Shape" class="a"/><path d="M66.9 17.8C66.9 15.9 68.4 14.2 70.5 14.2 72.6 14.2 74.2 15.8 74.2 17.8 74.2 19.8 72.6 21.4 70.5 21.4 68.4 21.4 66.9 19.8 66.9 17.8L66.9 17.8ZM67.5 29L73.6 29 73.6 50.3 67.5 50.3 67.5 29 67.5 29Z" id="Shape" class="a"/><path d="M99 48.4C99 48.4 96.3 50.8 90.9 50.8 83.4 50.8 78.6 46 78.6 39.6 78.6 33.2 83.3 28.4 90 28.4 96.6 28.4 100.6 32.9 100.6 39.2L100.6 40.7 84.6 40.7C85 44.4 87.7 46.1 91.2 46.1 95 46.1 97.1 44.5 97.1 44.5L99 48.4 99 48.4ZM84.7 37.5L95 37.5C94.6 35 92.8 33 89.9 33 87.2 33 85.2 34.5 84.7 37.5L84.7 37.5Z" id="Shape" class="a"/><path d="M128.8 50.2L124.7 50.2 120.5 38.5C120.3 37.8 120.1 37.1 120.1 36.5L119.8 36.5C119.8 37.1 119.6 37.9 119.4 38.5L115.4 50.2 111.2 50.2 102.3 28.9 108.7 28.9 112.9 41.3C113.1 41.9 113.3 42.5 113.3 43L113.7 43C113.7 42.4 113.9 41.8 114.1 41.3L117.8 28.9 122.2 28.9 126 41.3C126.2 41.9 126.4 42.5 126.4 43L126.8 43C126.8 42.4 127 41.9 127.2 41.3L131.4 28.9 137.7 28.9 128.8 50.2 128.8 50.2Z" id="Shape" class="b"/><path d="M141 17.8C141 15.9 142.5 14.2 144.6 14.2 146.7 14.2 148.3 15.8 148.3 17.8 148.3 19.8 146.7 21.4 144.6 21.4 142.5 21.4 141 19.8 141 17.8L141 17.8ZM141.6 29L147.7 29 147.7 50.3 141.6 50.3 141.6 29 141.6 29Z" id="Shape" class="b"/><path d="M167.6 34.9C167.6 34.9 166.5 34.2 164.7 34.2 162.3 34.2 160 36.1 160 38.7L160 50.2 154 50.2 154 29 157.9 29 158.7 32 158.9 32C159.9 30.4 161.9 28.8 165.1 28.8 168.2 28.8 169.6 30.1 169.6 30.1L167.6 34.9 167.6 34.9Z" id="Shape" class="b"/></g><g id="Group" class="b"><path d="M0 0L1.3 0 1.3 11.7 1.4 11.7C1.4 11.7 2.3 9.4 5.6 9.4 8.5 9.4 10.8 11.6 10.8 14.8 10.8 18.1 8.5 20.1 5.6 20.1 2.2 20.1 1.3 17.7 1.3 17.7L1.1 17.7 0.9 19.8 0 19.8 0 0 0 0ZM5.5 19C7.7 19 9.5 17.3 9.5 14.8 9.5 12.3 7.7 10.5 5.5 10.5 3.2 10.5 1.2 12.1 1.2 14.8 1.2 17.5 3.2 19 5.5 19L5.5 19Z" id="Shape"/><path d="M17.6 13.7C20 13.7 21.2 14.5 21.6 14.9L21.7 14.9 21.7 14C21.7 11.9 20.7 10.4 17.9 10.4 15.9 10.4 14.7 11.3 14.7 11.3L14.2 10.3C14.2 10.3 15.5 9.3 18.1 9.3 21.6 9.3 23 11.4 23 14.2L23 19.8 22.1 19.8 21.9 18.4 21.8 18.4C21.6 18.7 20.5 20 17.5 20 14.6 20 13.2 18.6 13.2 16.8 13.2 15.1 14.6 13.7 17.6 13.7L17.6 13.7ZM17.7 19.1C19.9 19.1 21.7 17.9 21.7 16.9 21.7 15.7 19.9 14.7 17.7 14.7 15.5 14.7 14.4 15.6 14.4 16.9 14.5 18.1 15.5 19.1 17.7 19.1L17.7 19.1Z" id="Shape"/><path d="M36.4 19.8L35.5 19.8 35.3 18.1 35.2 18.1C35 18.5 33.9 20.1 31.1 20.1 28.2 20.1 26.7 18.2 26.7 15.4L26.7 9.6 27.9 9.6 27.9 15.3C27.9 17.5 28.9 19 31.3 19 33.9 19 35 17.1 35 15.9L35 9.6 36.3 9.6 36.3 19.8 36.4 19.8Z" id="Shape"/><path d="M49.3 18.9C49.3 18.9 47.9 20 45.4 20 42.1 20 39.7 18 39.7 14.7 39.7 11.3 41.9 9.2 44.9 9.2 48.1 9.2 50 11.3 50 14.3L50 14.7 41 14.7C41 17.5 43.1 18.9 45.4 18.9 47.6 18.9 48.8 18 48.8 18L49.3 18.9 49.3 18.9ZM41.1 13.8L48.7 13.8C48.6 11.9 47.2 10.4 44.9 10.4 43 10.4 41.4 11.6 41.1 13.8L41.1 13.8Z" id="Shape"/><path d="M53.2 9.6L54.1 9.6 54.3 11.4 54.4 11.4C54.7 10.9 55.8 9.3 58.4 9.3 61.3 9.3 62.9 11.3 62.9 14.1L62.9 19.8 61.6 19.8 61.6 14.2C61.6 12 60.5 10.4 58.2 10.4 55.6 10.4 54.5 12.4 54.5 13.6L54.5 19.8 53.2 19.8 53.2 9.6 53.2 9.6Z" id="Shape"/></g><g id="Group" transform="translate(37 55)" class="b"><path d="M0.7 10C0.7 10 1.5 10.5 2.7 10.5 3.9 10.5 4.5 10.1 4.5 9.5 4.5 8 0.4 8.8 0.4 6.8 0.4 5.9 1.2 5.3 2.7 5.3 4.2 5.3 4.8 5.7 4.8 5.7L4.6 6.3C4.6 6.3 3.9 5.9 2.7 5.9 1.6 5.9 1 6.2 1 6.8 1 8.2 5 7.3 5 9.5 5 10.4 4.4 11.1 2.7 11.1 1.1 11.1 0.3 10.5 0.3 10.5L0.7 10 0.7 10Z" id="Shape"/><path d="M12.2 11L11.5 11 11.5 7.7C11.5 6.7 10.9 5.9 9.6 5.9 8.2 5.9 7.6 6.9 7.6 7.6L7.6 11 6.9 11 6.9 5.5 7.4 5.5 7.5 6.5 7.5 6.5C7.7 6.2 8.3 5.4 9.7 5.4 10.8 5.4 11.6 5.9 12 6.7L12 6.7C12.2 6.4 12.7 5.4 14.2 5.4 15.8 5.4 16.6 6.5 16.6 8L16.6 11.1 15.9 11.1 15.9 8.1C15.9 6.9 15.3 6.1 14 6.1 12.7 6.1 12.1 7.2 12.1 8L12.1 11 12.2 11Z" id="Shape"/><path d="M20.6 7.6C21.9 7.6 22.5 8 22.7 8.2L22.8 8.2 22.8 7.7C22.8 6.6 22.3 5.8 20.8 5.8 19.7 5.8 19.1 6.3 19.1 6.3L18.8 5.8C18.8 5.8 19.5 5.3 20.9 5.3 22.8 5.3 23.4 6.4 23.4 7.9L23.4 11 23 11 22.9 10.2 22.9 10.2C22.8 10.3 22.2 11.1 20.6 11.1 19 11.1 18.2 10.3 18.2 9.3 18.2 8.4 19 7.6 20.6 7.6L20.6 7.6ZM20.7 10.5C21.9 10.5 22.8 9.8 22.8 9.3 22.8 8.6 21.8 8.1 20.7 8.1 19.5 8.1 18.9 8.6 18.9 9.3 18.9 10 19.4 10.5 20.7 10.5L20.7 10.5Z" id="Shape"/><path d="M28.5 6.1C28.5 6.1 28.2 5.9 27.8 5.9 26.8 5.9 26.3 6.8 26.3 7.7L26.3 10.9 25.6 10.9 25.6 5.4 26.1 5.4 26.2 6.4 26.2 6.4C26.4 6 26.9 5.4 27.9 5.4 28.5 5.4 28.8 5.6 28.8 5.6L28.5 6.1 28.5 6.1Z" id="Shape"/><path d="M30.3 5.4L30.3 3.7 31 3.7 31 5.4 33.3 5.4 33.3 6 31 6 31 8.6C31 9.9 31.5 10.4 32.4 10.4 32.8 10.4 33.2 10.2 33.2 10.2L33.4 10.7C33.4 10.7 33 11 32.3 11 31 11 30.3 10.2 30.3 8.6L30.3 5.9 29.1 5.9 29.1 5.3 30.3 5.3 30.3 5.4Z" id="Shape"/><path d="M34.8 9.9C35.1 9.9 35.4 10.2 35.4 10.5 35.4 10.8 35.1 11.1 34.8 11.1 34.5 11.1 34.2 10.8 34.2 10.5 34.2 10.2 34.4 9.9 34.8 9.9L34.8 9.9Z" id="Shape"/><path d="M39.9 10C39.9 10 40.7 10.5 41.8 10.5 43 10.5 43.6 10.1 43.6 9.5 43.6 8 39.6 8.8 39.6 6.8 39.6 5.9 40.4 5.3 41.8 5.3 43.3 5.3 44 5.7 44 5.7L43.7 6.3C43.7 6.3 43 5.9 41.8 5.9 40.8 5.9 40.2 6.2 40.2 6.8 40.2 8.2 44.2 7.3 44.2 9.5 44.2 10.4 43.5 11.1 41.8 11.1 40.4 11.1 39.6 10.5 39.6 10.5L39.9 10 39.9 10Z" id="Shape"/><path d="M45.7 8.2C45.7 6.4 47 5.3 48.7 5.3 49.9 5.3 50.5 5.8 50.5 5.8L50.3 6.3C50.3 6.3 49.7 5.9 48.7 5.9 47.5 5.9 46.4 6.8 46.4 8.2 46.4 9.6 47.5 10.5 48.7 10.5 49.6 10.5 50.3 10.1 50.3 10.1L50.5 10.6C50.5 10.6 49.9 11.1 48.7 11.1 47 11.1 45.7 10 45.7 8.2L45.7 8.2Z" id="Shape"/><path d="M52 0.3L52.7 0.3 52.7 6.3 52.7 6.3C52.9 6.1 53.4 5.3 54.8 5.3 56.4 5.3 57.3 6.4 57.3 7.9L57.3 11 56.6 11 56.6 8C56.6 6.8 56 6 54.7 6 53.3 6 52.7 7 52.7 7.7L52.7 11.1 52 11.1 52 0.3 52 0.3Z" id="Shape"/><path d="M59.4 5.4L59.9 5.4 60 6.4 60 6.4C60.1 6.1 60.6 5.3 62.1 5.3 63.7 5.3 64.6 6.4 64.6 7.9L64.6 11 63.9 11 63.9 8C63.9 6.8 63.3 6 62 6 60.6 6 60 7 60 7.7L60 11.1 59.4 11.1 59.4 5.4 59.4 5.4Z" id="Shape"/><path d="M71.3 10.5C71.3 10.5 70.6 11.1 69.2 11.1 67.5 11.1 66.3 10 66.3 8.2 66.3 6.4 67.5 5.3 69.1 5.3 70.7 5.3 71.7 6.4 71.7 8L71.7 8.2 67 8.2C67 9.7 68.1 10.5 69.3 10.5 70.5 10.5 71.1 10 71.1 10L71.3 10.5 71.3 10.5ZM67 7.7L71 7.7C70.9 6.7 70.2 5.9 69.1 5.9 68 5.9 67.2 6.5 67 7.7L67 7.7Z" id="Shape"/><polygon id="Shape" points="73.4 0.3 74.1 0.3 74.1 11 73.4 11"/><polygon id="Shape" points="76.4 0.3 77.1 0.3 77.1 11 76.4 11"/><path d="M79.2 9.9C79.5 9.9 79.8 10.2 79.8 10.5 79.8 10.8 79.5 11.1 79.2 11.1 78.9 11.1 78.6 10.8 78.6 10.5 78.6 10.2 78.8 9.9 79.2 9.9L79.2 9.9Z" id="Shape"/><path d="M83.9 12.7C83.9 11.9 84.3 11.3 85.3 11L85.3 10.9C84.4 10.7 84 10.2 84 9.6 84 9.1 84.3 8.7 84.9 8.4 84.7 8.1 84.6 7.7 84.6 7.3 84.6 6.2 85.4 5.3 86.8 5.3 87.6 5.3 89.5 5.4 89.5 5.4L89.5 5.9 88.2 5.9 88.2 5.9C88.2 5.9 88.9 6.2 88.9 7.3 88.9 8.4 88.1 9.3 86.8 9.3 86.2 9.3 85.7 9.1 85.3 8.8 84.9 9 84.6 9.2 84.6 9.6 84.6 10.2 85.1 10.5 86.8 10.5 88.6 10.5 89.6 11.3 89.6 12.5 89.6 13.7 88.5 14.6 86.8 14.6 85 14.8 83.9 13.9 83.9 12.7L83.9 12.7ZM84.6 12.7C84.6 13.5 85.4 14.2 86.9 14.2 88.3 14.2 89.1 13.5 89.1 12.7 89.1 11.9 88.3 11.2 86.9 11.2 85.4 11.2 84.6 11.8 84.6 12.7L84.6 12.7ZM85.2 7.3C85.2 8.1 85.8 8.7 86.8 8.7 87.7 8.7 88.3 8.1 88.3 7.3 88.3 6.5 87.7 5.9 86.8 5.9 85.8 5.9 85.2 6.5 85.2 7.3L85.2 7.3Z" id="Shape"/><path d="M95.7 10.5C95.7 10.5 95 11.1 93.6 11.1 91.8 11.1 90.6 10 90.6 8.2 90.6 6.4 91.8 5.3 93.4 5.3 95.1 5.3 96.1 6.4 96.1 8L96.1 8.2 91.3 8.2C91.3 9.7 92.4 10.5 93.7 10.5 94.9 10.5 95.5 10 95.5 10L95.7 10.5 95.7 10.5ZM91.3 7.7L95.4 7.7C95.3 6.7 94.6 5.9 93.4 5.9 92.4 5.9 91.5 6.5 91.3 7.7L91.3 7.7Z" id="Shape"/><path d="M97.6 10C97.6 10 98.4 10.5 99.6 10.5 100.8 10.5 101.4 10.1 101.4 9.5 101.4 8 97.3 8.8 97.3 6.8 97.3 5.9 98.1 5.3 99.6 5.3 101.1 5.3 101.8 5.7 101.8 5.7L101.5 6.3C101.5 6.3 100.8 5.9 99.6 5.9 98.5 5.9 97.9 6.2 97.9 6.8 97.9 8.2 102 7.3 102 9.5 102 10.4 101.3 11.1 99.6 11.1 98 11.1 97.2 10.5 97.2 10.5L97.6 10 97.6 10Z" id="Shape"/><path d="M108.8 11L108.3 11 108.2 10 108.2 10C108.1 10.2 107.5 11.1 106.1 11.1 104.5 11.1 103.7 10 103.7 8.5L103.7 5.4 104.4 5.4 104.4 8.4C104.4 9.6 105 10.4 106.1 10.4 107.5 10.4 108.1 9.3 108.1 8.7L108.1 5.4 108.8 5.4 108.8 11 108.8 11Z" id="Shape"/><path d="M111.1 5.4L111.6 5.4 111.7 6.4 111.7 6.4C111.9 6.1 112.4 5.3 113.9 5.3 115.4 5.3 116.3 6.4 116.3 7.9L116.3 11 115.6 11 115.6 8C115.6 6.8 115.1 6 113.8 6 112.4 6 111.8 7 111.8 7.7L111.8 11.1 111.1 11.1 111.1 5.4 111.1 5.4Z" id="Shape"/><path d="M123 6.5L123 0.3 123.7 0.3 123.7 11 123.2 11 123.1 9.8 123.1 9.8C123.1 9.8 122.6 11.1 120.7 11.1 119.1 11.1 117.9 9.9 117.9 8.2 117.9 6.5 119.1 5.3 120.7 5.3 122.5 5.3 123 6.5 123 6.5L123 6.5 123 6.5ZM120.8 5.9C119.6 5.9 118.6 6.8 118.6 8.2 118.6 9.6 119.6 10.5 120.8 10.5 122 10.5 123.1 9.7 123.1 8.2 123.1 6.7 122 5.9 120.8 5.9L120.8 5.9Z" id="Shape"/><path d="M125.8 9.9C126.1 9.9 126.4 10.2 126.4 10.5 126.4 10.8 126.1 11.1 125.8 11.1 125.5 11.1 125.2 10.8 125.2 10.5 125.2 10.2 125.4 9.9 125.8 9.9L125.8 9.9Z" id="Shape"/></g></g></g></g></svg>
